<svg width="21" height="21" viewBox="0 0 21 21" fill="none" xmlns="http://www.w3.org/2000/svg">
<circle cx="10.5" cy="10.5" r="10.5" fill="#08080D"/>
<g clip-path="url(#clip0_702_135)">
<path d="M4.50608 10.4865C4.50605 10.4332 4.51652 10.3804 4.5369 10.3311C4.55728 10.2819 4.58717 10.2372 4.62485 10.1995C4.66253 10.1618 4.70727 10.1319 4.75651 10.1115C4.80575 10.0912 4.85852 10.0807 4.91181 10.0807L13.1086 10.0811L10.0731 7.0456C9.99704 6.96955 9.95432 6.86641 9.95432 6.75886C9.95432 6.65131 9.99704 6.54817 10.0731 6.47212C10.1491 6.39608 10.2523 6.35335 10.3598 6.35335C10.4674 6.35335 10.5705 6.39608 10.6466 6.47213L14.3742 10.1997C14.4502 10.2758 14.4929 10.3789 14.4929 10.4865C14.4929 10.594 14.4502 10.6971 14.3742 10.7732L10.6466 14.5008C10.5705 14.5768 10.4674 14.6195 10.3598 14.6195C10.2523 14.6195 10.1491 14.5768 10.0731 14.5008C9.99704 14.4247 9.95432 14.3216 9.95432 14.214C9.95432 14.1065 9.99704 14.0033 10.0731 13.9273L13.1086 10.8918L4.91181 10.8922C4.85852 10.8922 4.80575 10.8817 4.75651 10.8614C4.70727 10.841 4.66253 10.8111 4.62485 10.7734C4.58717 10.7357 4.55728 10.691 4.5369 10.6418C4.51652 10.5925 4.50605 10.5397 4.50608 10.4865Z" fill="white"/>
</g>
<defs>
<clipPath id="clip0_702_135">
<rect width="12.3529" height="12.3529" fill="white" transform="translate(9.5 19.4697) rotate(-135)"/>
</clipPath>
</defs>
</svg>
