<svg width="20" height="20" viewBox="0 0 20 20" fill="none" xmlns="http://www.w3.org/2000/svg">
<path d="M16.0006 4.56749C16.0617 4.62846 16.1101 4.70087 16.1431 4.78057C16.1762 4.86027 16.1932 4.94571 16.1932 5.03199C16.1932 5.11826 16.1762 5.2037 16.1431 5.2834C16.1101 5.3631 16.0617 5.43551 16.0006 5.49649L6.61625 14.88L13.5665 14.88C13.7406 14.88 13.9076 14.9492 14.0308 15.0723C14.1539 15.1955 14.2231 15.3625 14.2231 15.5366C14.2231 15.7107 14.1539 15.8777 14.0308 16.0008C13.9076 16.1239 13.7406 16.1931 13.5665 16.1931L5.03154 16.1931C4.85741 16.1931 4.69042 16.1239 4.5673 16.0008C4.44417 15.8777 4.375 15.7107 4.375 15.5366L4.375 7.0016C4.375 6.82747 4.44417 6.66048 4.56729 6.53736C4.69042 6.41423 4.85741 6.34506 5.03154 6.34506C5.20566 6.34506 5.37265 6.41423 5.49578 6.53736C5.6189 6.66048 5.68807 6.82747 5.68807 7.0016L5.68807 13.9519L15.0716 4.56749C15.1326 4.50644 15.205 4.45802 15.2847 4.42498C15.3644 4.39194 15.4498 4.37493 15.5361 4.37493C15.6224 4.37493 15.7078 4.39194 15.7875 4.42498C15.8672 4.45802 15.9397 4.50644 16.0006 4.56749Z" fill="black"/>
</svg>
