<svg width="26" height="26" viewBox="0 0 26 26" fill="none" xmlns="http://www.w3.org/2000/svg">
<path d="M16.6806 10.1806L13.8613 13L16.6806 15.8194C16.7405 15.8752 16.7885 15.9424 16.8218 16.0172C16.8551 16.0919 16.873 16.1726 16.8745 16.2544C16.8759 16.3363 16.8609 16.4175 16.8302 16.4934C16.7996 16.5693 16.754 16.6382 16.6961 16.6961C16.6382 16.754 16.5693 16.7996 16.4934 16.8302C16.4175 16.8609 16.3363 16.8759 16.2545 16.8745C16.1726 16.873 16.0919 16.8551 16.0172 16.8218C15.9424 16.7885 15.8752 16.7405 15.8194 16.6806L13 13.8612L10.1806 16.6806C10.0651 16.7883 9.91232 16.8469 9.75446 16.8441C9.59659 16.8413 9.44596 16.7773 9.33431 16.6657C9.22266 16.554 9.15871 16.4034 9.15592 16.2455C9.15314 16.0877 9.21174 15.9349 9.31938 15.8194L12.1388 13L9.31938 10.1806C9.21174 10.0651 9.15314 9.91232 9.15592 9.75445C9.15871 9.59658 9.22266 9.44596 9.33431 9.33431C9.44596 9.22266 9.59659 9.1587 9.75446 9.15592C9.91232 9.15313 10.0651 9.21173 10.1806 9.31937L13 12.1387L15.8194 9.31937C15.9349 9.21173 16.0877 9.15313 16.2456 9.15592C16.4034 9.1587 16.554 9.22266 16.6657 9.33431C16.7773 9.44596 16.8413 9.59658 16.8441 9.75445C16.8469 9.91232 16.7883 10.0651 16.6806 10.1806ZM23.3594 13C23.3594 15.0489 22.7518 17.0518 21.6135 18.7554C20.4752 20.459 18.8573 21.7867 16.9644 22.5708C15.0714 23.3549 12.9885 23.56 10.979 23.1603C8.96947 22.7606 7.1236 21.774 5.67482 20.3252C4.22604 18.8764 3.2394 17.0305 2.83968 15.021C2.43996 13.0115 2.64511 10.9286 3.42919 9.03564C4.21327 7.14271 5.54105 5.5248 7.24464 4.38649C8.94823 3.24819 10.9511 2.64063 13 2.64062C15.7465 2.64385 18.3796 3.73632 20.3216 5.67838C22.2637 7.62044 23.3562 10.2535 23.3594 13ZM22.1406 13C22.1406 11.1922 21.6045 9.42491 20.6002 7.92174C19.5958 6.41857 18.1682 5.247 16.498 4.55516C14.8277 3.86333 12.9899 3.68232 11.2168 4.03501C9.44365 4.3877 7.81495 5.25826 6.53661 6.5366C5.25827 7.81494 4.38771 9.44364 4.03501 11.2168C3.68232 12.9899 3.86334 14.8277 4.55517 16.498C5.247 18.1682 6.41858 19.5958 7.92175 20.6001C9.42491 21.6045 11.1922 22.1406 13 22.1406C15.4234 22.1379 17.7468 21.174 19.4604 19.4604C21.174 17.7468 22.1379 15.4234 22.1406 13Z" fill="#6F6F72"/>
</svg>
