<svg width="24" height="24" viewBox="0 0 24 24" fill="none" xmlns="http://www.w3.org/2000/svg">
<circle cx="12" cy="12" r="12" fill="#A7C5DF"/>
<path d="M18.2775 9.58359L12.2775 5.58359C12.1953 5.52877 12.0988 5.49951 12 5.49951C11.9012 5.49951 11.8047 5.52877 11.7225 5.58359L5.7225 9.58359C5.65401 9.62928 5.59786 9.69119 5.55904 9.76381C5.52023 9.83642 5.49995 9.9175 5.5 9.99984V16.4998C5.5 16.7651 5.60536 17.0194 5.79289 17.2069C5.98043 17.3945 6.23478 17.4998 6.5 17.4998H17.5C17.7652 17.4998 18.0196 17.3945 18.2071 17.2069C18.3946 17.0194 18.5 16.7651 18.5 16.4998V9.99984C18.5001 9.9175 18.4798 9.83642 18.441 9.76381C18.4021 9.69119 18.346 9.62928 18.2775 9.58359ZM10.045 13.4998L6.5 15.9998V10.9705L10.045 13.4998ZM11.0681 13.9998H12.9319L16.4712 16.4998H7.52875L11.0681 13.9998ZM13.955 13.4998L17.5 10.9705V15.9998L13.955 13.4998ZM12 6.60046L17.1194 10.0136L12.9319 12.9998H11.0694L6.88188 10.0136L12 6.60046Z" fill="black"/>
</svg>
