<svg width="27" height="26" viewBox="0 0 27 26" fill="none" xmlns="http://www.w3.org/2000/svg">
<rect width="27" height="26" rx="5" fill="#A7C5DF"/>
<path d="M19.9985 11.8279C19.7482 11.5662 19.4892 11.2966 19.3916 11.0596C19.3013 10.8424 19.2959 10.4825 19.2906 10.1339C19.2807 9.48574 19.27 8.75129 18.7594 8.24062C18.2487 7.72996 17.5143 7.71934 16.8661 7.70937C16.5175 7.70406 16.1576 7.69875 15.9404 7.60844C15.704 7.51082 15.4337 7.25184 15.1721 7.00148C14.7139 6.56121 14.1933 6.0625 13.5 6.0625C12.8067 6.0625 12.2868 6.56121 11.8279 7.00148C11.5662 7.25184 11.2966 7.51082 11.0596 7.60844C10.8438 7.69875 10.4825 7.70406 10.1339 7.70937C9.48574 7.71934 8.75129 7.72996 8.24062 8.24062C7.72996 8.75129 7.72266 9.48574 7.70937 10.1339C7.70406 10.4825 7.69875 10.8424 7.60844 11.0596C7.51082 11.296 7.25184 11.5662 7.00148 11.8279C6.56121 12.2861 6.0625 12.8067 6.0625 13.5C6.0625 14.1933 6.56121 14.7132 7.00148 15.1721C7.25184 15.4337 7.51082 15.7034 7.60844 15.9404C7.69875 16.1576 7.70406 16.5175 7.70937 16.8661C7.71934 17.5143 7.72996 18.2487 8.24062 18.7594C8.75129 19.27 9.48574 19.2807 10.1339 19.2906C10.4825 19.2959 10.8424 19.3013 11.0596 19.3916C11.296 19.4892 11.5662 19.7482 11.8279 19.9985C12.2861 20.4388 12.8067 20.9375 13.5 20.9375C14.1933 20.9375 14.7132 20.4388 15.1721 19.9985C15.4337 19.7482 15.7034 19.4892 15.9404 19.3916C16.1576 19.3013 16.5175 19.2959 16.8661 19.2906C17.5143 19.2807 18.2487 19.27 18.7594 18.7594C19.27 18.2487 19.2807 17.5143 19.2906 16.8661C19.2959 16.5175 19.3013 16.1576 19.3916 15.9404C19.4892 15.704 19.7482 15.4337 19.9985 15.1721C20.4388 14.7139 20.9375 14.1933 20.9375 13.5C20.9375 12.8067 20.4388 12.2868 19.9985 11.8279ZM19.2315 14.437C18.9134 14.769 18.5841 15.1123 18.4094 15.534C18.2421 15.9391 18.2348 16.402 18.2281 16.8502C18.2215 17.315 18.2142 17.8018 18.0077 18.0077C17.8011 18.2135 17.3177 18.2215 16.8502 18.2281C16.402 18.2348 15.9391 18.2421 15.534 18.4094C15.1123 18.5841 14.769 18.9134 14.437 19.2315C14.105 19.5496 13.7656 19.875 13.5 19.875C13.2344 19.875 12.8924 19.5483 12.563 19.2315C12.2336 18.9148 11.8877 18.5841 11.466 18.4094C11.0609 18.2421 10.598 18.2348 10.1498 18.2281C9.68496 18.2215 9.1982 18.2142 8.99234 18.0077C8.78648 17.8011 8.77852 17.3177 8.77187 16.8502C8.76523 16.402 8.75793 15.9391 8.59059 15.534C8.41594 15.1123 8.08656 14.769 7.76848 14.437C7.45039 14.105 7.125 13.7656 7.125 13.5C7.125 13.2344 7.45172 12.8924 7.76848 12.563C8.08523 12.2336 8.41594 11.8877 8.59059 11.466C8.75793 11.0609 8.76523 10.598 8.77187 10.1498C8.77852 9.68496 8.78582 9.1982 8.99234 8.99234C9.19887 8.78648 9.6823 8.77852 10.1498 8.77187C10.598 8.76523 11.0609 8.75793 11.466 8.59059C11.8877 8.41594 12.231 8.08656 12.563 7.76848C12.895 7.45039 13.2344 7.125 13.5 7.125C13.7656 7.125 14.1076 7.45172 14.437 7.76848C14.7664 8.08523 15.1123 8.41594 15.534 8.59059C15.9391 8.75793 16.402 8.76523 16.8502 8.77187C17.315 8.77852 17.8018 8.78582 18.0077 8.99234C18.2135 9.19887 18.2215 9.6823 18.2281 10.1498C18.2348 10.598 18.2421 11.0609 18.4094 11.466C18.5841 11.8877 18.9134 12.231 19.2315 12.563C19.5496 12.895 19.875 13.2344 19.875 13.5C19.875 13.7656 19.5483 14.1076 19.2315 14.437ZM16.5321 11.5304C16.5815 11.5797 16.6207 11.6383 16.6474 11.7028C16.6742 11.7673 16.6879 11.8364 16.6879 11.9062C16.6879 11.9761 16.6742 12.0452 16.6474 12.1097C16.6207 12.1742 16.5815 12.2328 16.5321 12.2821L12.8134 16.0009C12.764 16.0503 12.7054 16.0894 12.6409 16.1162C12.5764 16.1429 12.5073 16.1567 12.4375 16.1567C12.3677 16.1567 12.2986 16.1429 12.2341 16.1162C12.1696 16.0894 12.111 16.0503 12.0616 16.0009L10.4679 14.4071C10.3682 14.3074 10.3122 14.1722 10.3122 14.0312C10.3122 13.8903 10.3682 13.7551 10.4679 13.6554C10.5676 13.5557 10.7028 13.4997 10.8438 13.4997C10.9847 13.4997 11.1199 13.5557 11.2196 13.6554L12.4375 14.8739L15.7804 11.5304C15.8297 11.481 15.8883 11.4418 15.9528 11.4151C16.0173 11.3883 16.0864 11.3746 16.1562 11.3746C16.2261 11.3746 16.2952 11.3883 16.3597 11.4151C16.4242 11.4418 16.4828 11.481 16.5321 11.5304Z" fill="#08080D"/>
</svg>
