<svg width="24" height="24" viewBox="0 0 24 24" fill="none" xmlns="http://www.w3.org/2000/svg">
<circle cx="12" cy="12" r="12" fill="#A7C5DF"/>
<path d="M16.5 18H13.4087C13.928 17.5363 14.4177 17.0406 14.875 16.5156C16.5906 14.5425 17.5 12.4625 17.5 10.5C17.5 9.04131 16.9205 7.64236 15.8891 6.61091C14.8576 5.57946 13.4587 5 12 5C10.5413 5 9.14236 5.57946 8.11091 6.61091C7.07946 7.64236 6.5 9.04131 6.5 10.5C6.5 12.4625 7.40688 14.5425 9.125 16.5156C9.58226 17.0406 10.072 17.5363 10.5912 18H7.5C7.36739 18 7.24021 18.0527 7.14645 18.1464C7.05268 18.2402 7 18.3674 7 18.5C7 18.6326 7.05268 18.7598 7.14645 18.8536C7.24021 18.9473 7.36739 19 7.5 19H16.5C16.6326 19 16.7598 18.9473 16.8536 18.8536C16.9473 18.7598 17 18.6326 17 18.5C17 18.3674 16.9473 18.2402 16.8536 18.1464C16.7598 18.0527 16.6326 18 16.5 18ZM7.5 10.5C7.5 9.30653 7.97411 8.16193 8.81802 7.31802C9.66193 6.47411 10.8065 6 12 6C13.1935 6 14.3381 6.47411 15.182 7.31802C16.0259 8.16193 16.5 9.30653 16.5 10.5C16.5 14.0769 13.0331 17.0625 12 17.875C10.9669 17.0625 7.5 14.0769 7.5 10.5ZM14.5 10.5C14.5 10.0055 14.3534 9.5222 14.0787 9.11107C13.804 8.69995 13.4135 8.37952 12.9567 8.1903C12.4999 8.00108 11.9972 7.95157 11.5123 8.04804C11.0273 8.1445 10.5819 8.3826 10.2322 8.73223C9.8826 9.08186 9.6445 9.52732 9.54804 10.0123C9.45157 10.4972 9.50108 10.9999 9.6903 11.4567C9.87952 11.9135 10.2 12.304 10.6111 12.5787C11.0222 12.8534 11.5055 13 12 13C12.663 13 13.2989 12.7366 13.7678 12.2678C14.2366 11.7989 14.5 11.163 14.5 10.5ZM10.5 10.5C10.5 10.2033 10.588 9.91332 10.7528 9.66664C10.9176 9.41997 11.1519 9.22771 11.426 9.11418C11.7001 9.00065 12.0017 8.97094 12.2926 9.02882C12.5836 9.0867 12.8509 9.22956 13.0607 9.43934C13.2704 9.64912 13.4133 9.91639 13.4712 10.2074C13.5291 10.4983 13.4994 10.7999 13.3858 11.074C13.2723 11.3481 13.08 11.5824 12.8334 11.7472C12.5867 11.912 12.2967 12 12 12C11.6022 12 11.2206 11.842 10.9393 11.5607C10.658 11.2794 10.5 10.8978 10.5 10.5Z" fill="#08080D"/>
</svg>
