<svg width="24" height="25" viewBox="0 0 24 25" fill="none" xmlns="http://www.w3.org/2000/svg">
<path fill-rule="evenodd" clip-rule="evenodd" d="M7.2 0.375H16.8C20.7765 0.375 24 3.59855 24 7.575V17.175C24 21.1515 20.7765 24.375 16.8 24.375H7.2C3.22355 24.375 0 21.1515 0 17.175V7.575C0 3.59855 3.22355 0.375 7.2 0.375ZM19.2 3.97497C19.8 3.97497 20.4 4.57498 20.4 5.17497C20.4 5.77497 19.8 6.37498 19.2 6.37498C18.6 6.37498 18 5.77497 18 5.17497C18 4.57498 18.6 3.97497 19.2 3.97497ZM18 12.375C18 9.066 15.309 6.375 12 6.375C8.691 6.375 6 9.066 6 12.375C6 15.684 8.691 18.375 12 18.375C15.309 18.375 18 15.684 18 12.375ZM11.9999 8.77503C10.0117 8.77503 8.3999 10.3868 8.3999 12.375C8.3999 14.3633 10.0117 15.975 11.9999 15.975C13.9881 15.975 15.5999 14.3633 15.5999 12.375C15.5999 10.3868 13.9881 8.77503 11.9999 8.77503Z" fill="#08080D"/>
</svg>
