<svg width="21" height="21" viewBox="0 0 21 21" fill="none" xmlns="http://www.w3.org/2000/svg">
<g opacity="0.7">
<path fill-rule="evenodd" clip-rule="evenodd" d="M6.3 0H14.7C18.1794 0 21 2.82061 21 6.3V14.7C21 18.1794 18.1794 21 14.7 21H6.3C2.82061 21 0 18.1794 0 14.7V6.3C0 2.82061 2.82061 0 6.3 0ZM16.8 3.15C17.325 3.15 17.85 3.675 17.85 4.2C17.85 4.725 17.325 5.25 16.8 5.25C16.275 5.25 15.75 4.725 15.75 4.2C15.75 3.675 16.275 3.15 16.8 3.15ZM15.75 10.5C15.75 7.60462 13.3954 5.25 10.5 5.25C7.60462 5.25 5.25 7.60462 5.25 10.5C5.25 13.3954 7.60462 15.75 10.5 15.75C13.3954 15.75 15.75 13.3954 15.75 10.5ZM10.5 7.35C8.7603 7.35 7.35 8.7603 7.35 10.5C7.35 12.2397 8.7603 13.65 10.5 13.65C12.2397 13.65 13.65 12.2397 13.65 10.5C13.65 8.7603 12.2397 7.35 10.5 7.35Z" fill="white"/>
</g>
</svg>
