<svg width="24" height="24" viewBox="0 0 24 24" fill="none" xmlns="http://www.w3.org/2000/svg">
<circle cx="12" cy="12" r="12" fill="#A7C5DF"/>
<path d="M17.8981 13.9036L14.9538 12.5842L14.9456 12.5805C14.7928 12.5151 14.626 12.4889 14.4605 12.5042C14.2949 12.5194 14.1358 12.5758 13.9975 12.668C13.9812 12.6788 13.9656 12.6904 13.9506 12.703L12.4294 13.9999C11.4656 13.5317 10.4706 12.5442 10.0025 11.593L11.3013 10.0486C11.3138 10.033 11.3256 10.0174 11.3369 10.0005C11.4271 9.86256 11.4819 9.70445 11.4963 9.54023C11.5107 9.37601 11.4843 9.21078 11.4194 9.05925V9.05175L10.0963 6.10237C10.0105 5.90441 9.86296 5.73951 9.67575 5.63227C9.48854 5.52504 9.27166 5.48122 9.05751 5.50737C8.21061 5.61882 7.43324 6.03473 6.87059 6.67743C6.30794 7.32014 5.99847 8.14568 6.00001 8.99987C6.00001 13.9624 10.0375 17.9999 15 17.9999C15.8542 18.0014 16.6797 17.6919 17.3224 17.1293C17.9651 16.5666 18.3811 15.7893 18.4925 14.9424C18.5187 14.7283 18.475 14.5115 18.3679 14.3243C18.2607 14.1371 18.096 13.9895 17.8981 13.9036ZM15 16.9999C12.879 16.9976 10.8455 16.154 9.34571 14.6542C7.84592 13.1544 7.00232 11.1209 7.00001 8.99987C6.99765 8.38955 7.21754 7.79925 7.61859 7.33919C8.01964 6.87913 8.57444 6.58079 9.17938 6.49987C9.17913 6.50237 9.17913 6.50488 9.17938 6.50737L10.4919 9.44487L9.20001 10.9911C9.18689 11.0062 9.17498 11.0223 9.16438 11.0392C9.07033 11.1836 9.01515 11.3497 9.0042 11.5217C8.99325 11.6936 9.0269 11.8654 9.10188 12.0205C9.66813 13.1786 10.835 14.3367 12.0056 14.9024C12.1619 14.9767 12.3347 15.0091 12.5072 14.9966C12.6798 14.9842 12.8461 14.9271 12.99 14.8311C13.0061 14.8203 13.0215 14.8086 13.0363 14.7961L14.5556 13.4999L17.4931 14.8155C17.4931 14.8155 17.4981 14.8155 17.5 14.8155C17.4201 15.4213 17.1222 15.9772 16.662 16.3793C16.2019 16.7813 15.611 17.0019 15 16.9999Z" fill="#08080D"/>
</svg>
