<svg width="13" height="13" viewBox="0 0 13 13" fill="none" xmlns="http://www.w3.org/2000/svg">
<path d="M12.0006 0.567485C12.0617 0.62846 12.1101 0.700869 12.1431 0.780571C12.1762 0.860274 12.1932 0.945707 12.1932 1.03199C12.1932 1.11826 12.1762 1.2037 12.1431 1.2834C12.1101 1.3631 12.0617 1.43551 12.0006 1.49649L2.61625 10.88L9.56652 10.88C9.74064 10.88 9.90764 10.9492 10.0308 11.0723C10.1539 11.1955 10.2231 11.3625 10.2231 11.5366C10.2231 11.7107 10.1539 11.8777 10.0308 12.0008C9.90764 12.1239 9.74064 12.1931 9.56652 12.1931L1.03154 12.1931C0.857413 12.1931 0.69042 12.1239 0.567295 12.0008C0.444171 11.8777 0.375 11.7107 0.375 11.5366L0.375 3.0016C0.375 2.82747 0.44417 2.66048 0.567295 2.53736C0.69042 2.41423 0.857412 2.34506 1.03154 2.34506C1.20566 2.34506 1.37265 2.41423 1.49578 2.53736C1.6189 2.66048 1.68807 2.82747 1.68807 3.0016L1.68807 9.95186L11.0716 0.567485C11.1326 0.506444 11.205 0.458018 11.2847 0.424978C11.3644 0.391938 11.4498 0.374933 11.5361 0.374933C11.6224 0.374933 11.7078 0.391938 11.7875 0.424978C11.8672 0.458018 11.9397 0.506443 12.0006 0.567485Z" fill="#08080D"/>
</svg>
