<svg width="13" height="25" viewBox="0 0 13 25" fill="none" xmlns="http://www.w3.org/2000/svg">
<path d="M11.8534 14.3537L7.35351 18.8535C7.25969 18.9473 7.13245 19 6.99977 19C6.86709 19 6.73985 18.9473 6.64603 18.8535C6.55222 18.7597 6.49951 18.6324 6.49951 18.4997C6.49951 18.3671 6.55222 18.2398 6.64603 18.146L10.2928 14.5H0.499984C0.36738 14.5 0.240207 14.4473 0.146442 14.3535C0.0526768 14.2598 0 14.1326 0 14C0 13.8674 0.0526768 13.7402 0.146442 13.6465C0.240207 13.5527 0.36738 13.5 0.499984 13.5H10.2928L6.64603 9.85398C6.55222 9.76017 6.49951 9.63292 6.49951 9.50025C6.49951 9.36758 6.55222 9.24033 6.64603 9.14652C6.73985 9.0527 6.86709 9 6.99977 9C7.13245 9 7.25969 9.0527 7.35351 9.14652L11.8534 13.6463C11.8998 13.6927 11.9367 13.7478 11.9619 13.8085C11.9871 13.8692 12 13.9343 12 14C12 14.0657 11.9871 14.1308 11.9619 14.1915C11.9367 14.2522 11.8998 14.3073 11.8534 14.3537Z" fill="#F4F4FC"/>
</svg>
