<svg width="19" height="18" viewBox="0 0 19 18" fill="none" xmlns="http://www.w3.org/2000/svg">
<g clip-path="url(#clip0_802_649)">
<path d="M4.50608 8.48645C4.50605 8.43316 4.51652 8.38039 4.5369 8.33115C4.55728 8.28191 4.58717 8.23717 4.62485 8.19949C4.66253 8.16181 4.70727 8.13192 4.75651 8.11154C4.80575 8.09116 4.85852 8.08069 4.91181 8.08072L13.1086 8.08108L10.0731 5.0456C9.99704 4.96955 9.95432 4.86641 9.95432 4.75886C9.95432 4.65131 9.99704 4.54817 10.0731 4.47212C10.1491 4.39608 10.2523 4.35335 10.3598 4.35335C10.4674 4.35335 10.5705 4.39608 10.6466 4.47212L14.3742 8.19971C14.4502 8.27576 14.4929 8.3789 14.4929 8.48645C14.4929 8.594 14.4502 8.69714 14.3742 8.77319L10.6466 12.5008C10.5705 12.5768 10.4674 12.6195 10.3598 12.6195C10.2523 12.6195 10.1491 12.5768 10.0731 12.5008C9.99704 12.4247 9.95432 12.3216 9.95432 12.214C9.95432 12.1065 9.99704 12.0033 10.0731 11.9273L13.1086 8.89183L4.91181 8.89218C4.85852 8.89221 4.80575 8.88174 4.75651 8.86136C4.70727 8.84098 4.66253 8.8111 4.62485 8.77341C4.58717 8.73573 4.55728 8.69099 4.5369 8.64175C4.51652 8.59251 4.50605 8.53974 4.50608 8.48645Z" fill="#08080D"/>
</g>
<defs>
<clipPath id="clip0_802_649">
<rect width="12.3529" height="12.3529" fill="white" transform="translate(9.5 17.4697) rotate(-135)"/>
</clipPath>
</defs>
</svg>
