<svg width="19" height="18" viewBox="0 0 19 18" fill="none" xmlns="http://www.w3.org/2000/svg">
<g clip-path="url(#clip0_575_3874)">
<path d="M4.50632 8.48639C4.50629 8.4331 4.51677 8.38033 4.53715 8.33109C4.55753 8.28185 4.58741 8.23711 4.62509 8.19943C4.66278 8.16175 4.70751 8.13186 4.75675 8.11148C4.80599 8.0911 4.85877 8.08063 4.91206 8.08066L13.1088 8.08101L10.0733 5.04554C9.99728 4.96949 9.95456 4.86635 9.95456 4.7588C9.95456 4.65125 9.99728 4.54811 10.0733 4.47206C10.1494 4.39602 10.2525 4.35329 10.3601 4.35329C10.4676 4.35329 10.5708 4.39602 10.6468 4.47206L14.3744 8.19965C14.4504 8.2757 14.4932 8.37884 14.4932 8.48639C14.4932 8.59394 14.4504 8.69708 14.3744 8.77313L10.6468 12.5007C10.5708 12.5768 10.4676 12.6195 10.3601 12.6195C10.2525 12.6195 10.1494 12.5768 10.0733 12.5007C9.99728 12.4247 9.95456 12.3215 9.95456 12.214C9.95456 12.1064 9.99728 12.0033 10.0733 11.9272L13.1088 8.89176L4.91206 8.89212C4.85877 8.89215 4.80599 8.88168 4.75675 8.8613C4.70751 8.84092 4.66278 8.81103 4.62509 8.77335C4.58741 8.73567 4.55753 8.69093 4.53715 8.64169C4.51677 8.59245 4.50629 8.53968 4.50632 8.48639Z" fill="white"/>
</g>
<defs>
<clipPath id="clip0_575_3874">
<rect width="12.3529" height="12.3529" fill="white" transform="translate(9.5 17.4697) rotate(-135)"/>
</clipPath>
</defs>
</svg>
