<svg width="23" height="23" viewBox="0 0 23 23" fill="none" xmlns="http://www.w3.org/2000/svg">
<path fill-rule="evenodd" clip-rule="evenodd" d="M20.7 0H2.3C1.02974 0 0 1.02974 0 2.3V20.7C0 21.9703 1.02974 23 2.3 23H11.5V14.3412H8.05V11.0941H11.5V9.35045C11.5 6.04927 13.2131 4.6 16.0137 4.6C17.3286 4.6 18.0361 4.69363 18.3798 4.73912L18.4 4.74179V7.84706H16.4899C15.3011 7.84706 14.95 8.46183 14.95 9.70654V11.0941H18.3702L17.8973 14.3412H14.95V23H20.7C21.9703 23 23 21.9703 23 20.7V2.3C23 1.02974 21.9703 0 20.7 0Z" fill="#08080D"/>
</svg>
