<svg width="24" height="25" viewBox="0 0 24 25" fill="none" xmlns="http://www.w3.org/2000/svg">
<circle cx="12" cy="12.5" r="12" fill="#13121E"/>
<path d="M17.4438 14.2573L14.7259 13.0394L14.7184 13.036C14.5773 12.9756 14.4234 12.9514 14.2706 12.9655C14.1178 12.9796 13.9709 13.0316 13.8433 13.1168C13.8282 13.1267 13.8138 13.1375 13.8 13.1491L12.3958 14.3462C11.5061 13.9141 10.5877 13.0025 10.1556 12.1244L11.3544 10.6989C11.3659 10.6844 11.3769 10.67 11.3873 10.6544C11.4706 10.5271 11.5212 10.3812 11.5345 10.2296C11.5477 10.078 11.5233 9.92548 11.4634 9.7856V9.77867L10.2421 7.05617C10.1629 6.87344 10.0267 6.72122 9.85394 6.62224C9.68112 6.52325 9.48093 6.48281 9.28325 6.50694C8.5015 6.60981 7.78393 6.99373 7.26456 7.587C6.74519 8.18026 6.45953 8.9423 6.46094 9.73079C6.46094 14.3116 10.1879 18.0385 14.7686 18.0385C15.5571 18.0399 16.3192 17.7542 16.9124 17.2349C17.5057 16.7155 17.8896 15.9979 17.9925 15.2162C18.0167 15.0186 17.9763 14.8184 17.8774 14.6456C17.7785 14.4728 17.6265 14.3366 17.4438 14.2573ZM14.7686 17.1154C12.8108 17.1133 10.9337 16.3346 9.54928 14.9501C8.16486 13.5657 7.38616 11.6887 7.38402 9.73079C7.38185 9.16742 7.58482 8.62252 7.95502 8.19785C8.32522 7.77318 8.83735 7.49779 9.39575 7.4231C9.39552 7.4254 9.39552 7.42772 9.39575 7.43002L10.6073 10.1416L9.41479 11.5689C9.40269 11.5828 9.39169 11.5976 9.3819 11.6133C9.29509 11.7465 9.24416 11.8999 9.23405 12.0586C9.22394 12.2173 9.255 12.3759 9.32421 12.5191C9.8469 13.5881 10.924 14.6571 12.0046 15.1793C12.1488 15.2478 12.3083 15.2778 12.4676 15.2663C12.6269 15.2547 12.7804 15.2021 12.9133 15.1135C12.9281 15.1035 12.9423 15.0927 12.9559 15.0812L14.3584 13.8846L17.07 15.0991C17.07 15.0991 17.0746 15.0991 17.0763 15.0991C17.0025 15.6582 16.7276 16.1714 16.3028 16.5425C15.8781 16.9136 15.3327 17.1173 14.7686 17.1154Z" fill="white"/>
</svg>
